<?xml version="1.0" encoding="UTF-8"?>
<!DOCTYPE svg PUBLIC "-//W3C//DTD SVG 1.1//EN" "http://www.w3.org/Graphics/SVG/1.1/DTD/svg11.dtd">
<!-- Creator: CorelDRAW -->
<svg xmlns="http://www.w3.org/2000/svg" xml:space="preserve" width="8.5in" height="11in" style="shape-rendering:geometricPrecision; text-rendering:geometricPrecision; image-rendering:optimizeQuality; fill-rule:evenodd; clip-rule:evenodd"
viewBox="0 0 8.5 11">
 <defs>
  <style type="text/css">
   <![CDATA[
    .str0 {stroke:#1F1A17;stroke-width:0.003}
    .fil1 {fill:#1F1A17}
    .fil3 {fill:#F3EAB6;fill-rule:nonzero}
    .fil2 {fill:#F4EAB5;fill-rule:nonzero}
    .fil0 {fill:url(#id0)}
   ]]>
  </style>
  <linearGradient id="id0" gradientUnits="userSpaceOnUse" x1="4.25" y1="10.9539" x2="4.25" y2="0.0234173">
   <stop offset="0" style="stop-color:#EF9A48"/>
   <stop offset="0.478431" style="stop-color:#E77817"/>
   <stop offset="1" style="stop-color:#FFFCC8"/>
  </linearGradient>
 </defs>
 <g id="Layer_x0020_1">
  <metadata id="CorelCorpID_0Corel-Layer"/>
  <rect class="fil0 str0" x="0.000535433" y="0.0234173" width="8.49893" height="10.9304" rx="1.09361" ry="1.09361"/>
  <rect class="fil1 str0" x="0.324023" y="0.272134" width="7.84144" height="10.3452" rx="0.883413" ry="0.883413"/>
  <polygon class="fil2" points="5.11367,1.08668 5.4112,1.08668 5.4112,5.91331 5.08965,5.91331 5.08965,2.15743 4.40177,4.02299 4.34281,4.02299 3.64838,2.15743 3.64838,5.91331 3.32846,5.91331 3.32846,1.08668 3.62927,1.08668 4.37338,3.07017 "/>
  <polygon class="fil3" points="6.01827,3.80704 6.67911,3.80704 6.67911,6.39296 5.96492,6.39296 5.96492,4.3807 4.43709,5.3802 4.30613,5.3802 2.76376,4.3807 2.76376,6.39296 2.0532,6.39296 2.0532,3.80704 2.72132,3.80704 4.37404,4.86971 "/>
  <path class="fil3" d="M2.30571 7.67833c0,0.214606 0.045622,0.411917 0.138504,0.591941 0.091248,0.179004 0.231382,0.334618 0.417138,0.464803 0.18576,0.130189 0.417142,0.231894 0.694146,0.305126 0.277012,0.0732283 0.599642,0.109843 0.969524,0.109843 0.206941,0 0.418772,-0.0142362 0.635488,-0.0427165 0.215091,-0.0284764 0.405732,-0.0681457 0.567051,-0.11798l0 -0.840106 -1.37852 0 0 -0.494303 2.31871 0 0 1.64157c-0.327524,0.116965 -0.68111,0.204433 -1.06078,0.260374 -0.381291,0.0569528 -0.778882,0.0854331 -1.19602,0.0854331 -0.483953,0 -0.91739,-0.0488189 -1.29868,-0.146461 -0.382917,-0.0976378 -0.705551,-0.231894 -0.969524,-0.40378 -0.263972,-0.171886 -0.46602,-0.375303 -0.602898,-0.61228 -0.138504,-0.235965 -0.208567,-0.493283 -0.208567,-0.771965 0,-0.317327 0.0847283,-0.601094 0.252563,-0.852311 0.169461,-0.250201 0.399217,-0.461756 0.69252,-0.635673 0.293303,-0.173921 0.63874,-0.307161 1.03796,-0.399713 0.399217,-0.0915394 0.831024,-0.138323 1.29215,-0.138323 0.381291,0 0.749555,0.0294961 1.10477,0.0895 0.355224,0.0600079 0.677858,0.146461 0.966272,0.259358l-0.00977559 0.592957c-0.145024,-0.0671299 -0.303079,-0.129169 -0.472543,-0.183075 -0.167835,-0.0549213 -0.342185,-0.101709 -0.521425,-0.140358 -0.18087,-0.0386496 -0.36011,-0.0691614 -0.539346,-0.0905197 -0.180874,-0.022374 -0.35685,-0.033563 -0.527949,-0.033563 -0.353587,0 -0.672961,0.0366142 -0.958114,0.108827 -0.283524,0.0732283 -0.526319,0.174937 -0.72511,0.307157 -0.198791,0.13222 -0.351961,0.290886 -0.457874,0.474976 -0.107543,0.18511 -0.159685,0.388524 -0.159685,0.611264z"/>
 </g>
</svg>
